<svg width="140" height="140" viewBox="0 0 140 140" fill="none" xmlns="http://www.w3.org/2000/svg">
<g clip-path="url(#clip0_298_4295)">
<rect width="140" height="140" rx="70" fill="#EBF2EE"/>
<path d="M35.443 219.458C34.3875 217.857 34.8082 216.245 35.6144 214.496C30.3407 214.3 25.3747 213.447 20.7748 211.221C10.5858 206.29 3.57105 198.796 2.14162 187.049C1.76771 183.981 2.12214 180.929 3.34904 178.045C3.76579 177.071 4.31108 176.088 5.52239 176.069C6.62076 176.053 7.25173 176.914 7.71522 177.783C8.54484 179.329 9.21476 180.96 10.0716 182.49C13.7329 189.029 19.4155 192.715 26.9561 194.398C24.9852 191.224 23.2208 188.317 22.0212 185.112C20.8177 181.907 20.027 178.652 20.4944 175.185C21.5188 167.597 28.0583 163.296 35.3963 165.429C36.2026 165.664 36.9737 166.016 37.7605 166.31C39.447 166.94 40.448 166.212 40.2104 164.38C39.8248 161.41 39.3146 158.456 38.8511 155.498C36.0039 137.29 38.3564 119.685 44.8025 102.518C46.6837 97.5127 48.9545 92.6956 51.2992 87.9099C52.16 86.1529 52.3781 84.4468 51.3187 82.7093C47.8405 77.0079 45.8502 70.8251 45.3984 63.5585C43.7548 66.2585 42.0839 68.2738 39.6184 69.4125C38.855 69.7647 38.1072 70.1795 37.3048 70.4104C34.4031 71.2595 32.3855 70.1443 32.1986 67.139C31.8597 61.6997 29.7915 56.9296 27.3105 52.2417C26.2472 50.2303 25.3007 48.1485 24.8061 45.9063C23.6571 40.7292 25.0748 36.7104 29.515 33.8891C38.1812 28.3833 47.6224 26.3211 57.7959 28.1094C58.7112 28.2698 59.5486 28.3246 60.4561 27.9998C67.6111 25.4602 74.7855 25.2137 81.9482 27.9881C82.7194 28.2855 83.4594 28.2894 84.2345 28.1407C92.9046 26.4815 101.146 27.9059 108.987 31.7838C116.262 35.3839 118.689 41.7349 115.834 49.4164C115.18 51.1812 114.397 52.9069 113.563 54.5974C111.694 58.4009 110.066 62.271 109.061 66.419C107.631 72.3121 104.157 72.6134 99.5882 69.0447C98.2951 68.0351 97.7693 66.4307 96.6593 64.8733C96.0205 71.8934 93.7303 77.9627 89.9873 83.4802C88.9941 84.9398 89.3174 86.3212 90.0107 87.7181C95.2843 98.3697 98.5483 109.636 100.184 121.398C102.159 135.603 100.986 149.6 97.5044 163.461C97.2045 164.65 96.1607 166.176 97.2941 167.092C98.264 167.875 99.3195 166.388 100.352 165.969C103.986 164.509 107.612 164.525 111.144 166.063C115.082 167.777 116.847 171.095 116.878 175.271C116.948 183.919 113.544 191.381 108.601 198.19C105.131 202.968 100.866 207.147 97.9641 212.371C97.5083 213.189 97.2162 213.717 98.0225 214.523C99.1832 215.685 99.1754 217.215 98.8949 218.746C98.3263 220.87 96.1802 220.898 94.7585 221.892C93.6563 222.843 92.3008 223.179 90.9298 223.48C89.7575 223.516 88.6435 223.985 87.4634 223.958C86.6688 223.958 85.8782 223.958 85.0875 223.97C82.8284 223.966 80.5655 223.97 78.3065 223.97C75.7008 223.883 73.0717 224.189 70.4894 223.594C66.3218 223.027 62.201 224.04 58.0491 223.966C57.2311 223.95 56.4132 223.985 55.5992 223.973C53.3713 223.95 51.1473 223.966 48.9233 223.97C48.5844 223.973 48.2456 224.017 47.9067 223.993C46.2787 223.981 44.6895 223.578 43.0693 223.5C41.7723 223.222 40.4947 222.886 39.3263 222.232C38.076 221.25 36.0429 221.367 35.4469 219.458H35.443Z" fill="#C2C7C5"/>
</g>
<rect x="1" y="1" width="138" height="138" rx="69" stroke="#F8FCFC" stroke-width="2"/>
<defs>
<clipPath id="clip0_298_4295">
<rect width="140" height="140" rx="70" fill="white"/>
</clipPath>
</defs>
</svg>
