<svg width="20" height="20" viewBox="0 0 20 20" fill="none" xmlns="http://www.w3.org/2000/svg">
<g clip-path="url(#clip0_69_2600)">
<path d="M19.6172 8.18359H10.1992V12.0547H15.582C15.3438 13.3008 14.6367 14.3555 13.5742 15.0625C12.6836 15.6641 11.5469 16.0273 10.2031 16.0273C7.60156 16.0273 5.39453 14.2734 4.60156 11.9102H4.58984L4.60156 11.9023C4.40234 11.3008 4.28516 10.6641 4.28516 10.0039C4.28516 9.34375 4.40234 8.70312 4.60156 8.10547C5.39062 5.74219 7.60156 3.98828 10.2031 3.98828C11.6758 3.98828 12.9844 4.49609 14.0312 5.48047L16.8945 2.61719C15.1562 0.992188 12.8984 0 10.1992 0C6.28906 0 2.91797 2.24609 1.27344 5.51953C0.589844 6.86328 0.199219 8.38281 0.199219 10C0.199219 11.6172 0.589844 13.1367 1.27344 14.4805V14.4883C2.91797 17.7539 6.28906 20 10.1992 20C12.8984 20 15.1641 19.1094 16.8164 17.582C18.707 15.8359 19.7969 13.2734 19.7969 10.2266C19.8008 9.51953 19.7383 8.83594 19.6172 8.18359Z" fill="#FC4C53"/>
<path d="M4.60156 11.9102H4.58984L4.60156 11.9023C4.40234 11.3008 4.28516 10.6641 4.28516 10.0039C4.28516 9.33984 4.40234 8.70313 4.60156 8.10547C5.10156 6.60938 6.17188 5.36328 7.54297 4.64453C6.60156 3.39453 5.40234 2.5 4.0625 2.11719C2.90234 3.02734 1.94141 4.18359 1.26953 5.51563C0.589844 6.86328 0.199219 8.38281 0.199219 10C0.199219 11.6172 0.589844 13.1367 1.27344 14.4805V14.4883C2.37891 16.6758 4.26172 18.4062 6.55859 19.3086C7.51953 18.4297 8.30469 17.2383 8.84766 15.8438C6.85937 15.3594 5.25 13.8477 4.60156 11.9102Z" fill="url(#paint0_radial_69_2600)"/>
<path d="M1.34766 14.625C3.01562 17.8164 6.34375 20 10.1992 20C12.8984 20 15.1641 19.1094 16.8164 17.582C18.707 15.8359 19.7969 13.2734 19.7969 10.2266C19.7969 10.0508 19.7812 9.88671 19.7734 9.71484C17.4688 8.95702 14.8281 8.67187 12.0703 9.01562C11.4297 9.09374 10.8125 9.21484 10.2031 9.35546V12.0547H15.5859C15.3477 13.3008 14.6406 14.3555 13.5781 15.0625C12.6875 15.6641 11.5508 16.0273 10.207 16.0273C7.60547 16.0273 5.39844 14.2734 4.60547 11.9101H4.59375L4.60547 11.9023C4.58594 11.8437 4.57812 11.7812 4.55859 11.7226C3.28906 12.5547 2.20703 13.5391 1.34766 14.625Z" fill="url(#paint1_radial_69_2600)"/>
<path d="M16.8164 17.582C18.707 15.8359 19.7969 13.2734 19.7969 10.2266C19.7969 9.51562 19.7344 8.83594 19.6133 8.17969H10.1992V12.0508H15.582C15.3437 13.2969 14.6367 14.3516 13.5742 15.0586C12.9336 15.4883 12.1641 15.793 11.2852 15.9297L14.6328 19.043C15.4453 18.6641 16.1797 18.1719 16.8164 17.582Z" fill="url(#paint2_linear_69_2600)"/>
</g>
<defs>
<radialGradient id="paint0_radial_69_2600" cx="0" cy="0" r="1" gradientUnits="userSpaceOnUse" gradientTransform="translate(2.60581 11.4295) scale(7.05024 9.51678)">
<stop offset="0.368" stop-color="#FFCF09"/>
<stop offset="0.718" stop-color="#FFCF09" stop-opacity="0.7"/>
<stop offset="1" stop-color="#FFCF09" stop-opacity="0"/>
</radialGradient>
<radialGradient id="paint1_radial_69_2600" cx="0" cy="0" r="1" gradientTransform="matrix(14.2213 -1.77632 -1.34763 -10.7929 13.4168 19.8078)" gradientUnits="userSpaceOnUse">
<stop offset="0.383" stop-color="#34A853"/>
<stop offset="0.706" stop-color="#34A853" stop-opacity="0.7"/>
<stop offset="1" stop-color="#34A853" stop-opacity="0"/>
</radialGradient>
<linearGradient id="paint2_linear_69_2600" x1="20.3673" y1="4.52871" x2="9.99402" y2="17.2678" gradientUnits="userSpaceOnUse">
<stop offset="0.671" stop-color="#4285F4"/>
<stop offset="0.885" stop-color="#4285F4" stop-opacity="0"/>
</linearGradient>
<clipPath id="clip0_69_2600">
<rect width="20" height="20" fill="white"/>
</clipPath>
</defs>
</svg>
