<svg width="15" height="15" viewBox="0 0 15 15" fill="none" xmlns="http://www.w3.org/2000/svg">
<path d="M1.99062 5.16014C1.89332 4.72183 1.90826 4.26604 2.03406 3.83504C2.15986 3.40403 2.39246 3.01177 2.71027 2.69462C3.02808 2.37748 3.42083 2.14571 3.85209 2.02081C4.28336 1.89591 4.73918 1.88192 5.17729 1.98014C5.41843 1.60301 5.75063 1.29265 6.14326 1.07767C6.53589 0.862685 6.97632 0.75 7.42396 0.75C7.87159 0.75 8.31202 0.862685 8.70466 1.07767C9.09729 1.29265 9.42948 1.60301 9.67062 1.98014C10.1094 1.88149 10.566 1.89542 10.998 2.02062C11.4299 2.14582 11.8232 2.37824 12.1412 2.69625C12.4592 3.01425 12.6916 3.40753 12.8168 3.83948C12.942 4.27143 12.9559 4.72803 12.8573 5.16681C13.2344 5.40795 13.5448 5.74015 13.7598 6.13278C13.9747 6.52541 14.0874 6.96584 14.0874 7.41348C14.0874 7.86111 13.9747 8.30154 13.7598 8.69418C13.5448 9.08681 13.2344 9.419 12.8573 9.66014C12.9555 10.0983 12.9415 10.5541 12.8166 10.9853C12.6917 11.4166 12.46 11.8094 12.1428 12.1272C11.8257 12.445 11.4334 12.6776 11.0024 12.8034C10.5714 12.9292 10.1156 12.9441 9.67729 12.8468C9.43646 13.2254 9.10401 13.5371 8.71071 13.753C8.31741 13.969 7.87597 14.0822 7.42729 14.0822C6.97861 14.0822 6.53717 13.969 6.14387 13.753C5.75057 13.5371 5.41812 13.2254 5.17729 12.8468C4.73918 12.945 4.28336 12.931 3.85209 12.8061C3.42083 12.6812 3.02808 12.4495 2.71027 12.1323C2.39246 11.8152 2.15986 11.4229 2.03406 10.9919C1.90826 10.5609 1.89332 10.1051 1.99062 9.66681C1.61059 9.42631 1.29757 9.09359 1.08066 8.69962C0.863745 8.30565 0.75 7.86321 0.75 7.41348C0.75 6.96374 0.863745 6.52131 1.08066 6.12733C1.29757 5.73336 1.61059 5.40065 1.99062 5.16014Z" fill="#71B5B7"/>
<path d="M7.42396 10.0801V7.41348M7.42396 4.74681H7.43062M1.99062 5.16014C1.89332 4.72183 1.90826 4.26604 2.03406 3.83504C2.15986 3.40403 2.39246 3.01177 2.71027 2.69462C3.02808 2.37748 3.42083 2.14571 3.85209 2.02081C4.28336 1.89591 4.73918 1.88192 5.17729 1.98014C5.41843 1.60301 5.75063 1.29265 6.14326 1.07767C6.53589 0.862685 6.97632 0.75 7.42396 0.75C7.87159 0.75 8.31202 0.862685 8.70466 1.07767C9.09729 1.29265 9.42948 1.60301 9.67062 1.98014C10.1094 1.88149 10.566 1.89542 10.998 2.02062C11.4299 2.14582 11.8232 2.37824 12.1412 2.69625C12.4592 3.01425 12.6916 3.40753 12.8168 3.83948C12.942 4.27143 12.9559 4.72803 12.8573 5.16681C13.2344 5.40795 13.5448 5.74015 13.7598 6.13278C13.9747 6.52541 14.0874 6.96584 14.0874 7.41348C14.0874 7.86111 13.9747 8.30154 13.7598 8.69418C13.5448 9.08681 13.2344 9.419 12.8573 9.66014C12.9555 10.0983 12.9415 10.5541 12.8166 10.9853C12.6917 11.4166 12.46 11.8094 12.1428 12.1272C11.8257 12.445 11.4334 12.6776 11.0024 12.8034C10.5714 12.9292 10.1156 12.9441 9.67729 12.8468C9.43646 13.2254 9.10401 13.5371 8.71071 13.753C8.31741 13.969 7.87597 14.0822 7.42729 14.0822C6.97861 14.0822 6.53717 13.969 6.14387 13.753C5.75057 13.5371 5.41812 13.2254 5.17729 12.8468C4.73918 12.945 4.28336 12.931 3.85209 12.8061C3.42083 12.6812 3.02808 12.4495 2.71027 12.1323C2.39246 11.8152 2.15986 11.4229 2.03406 10.9919C1.90826 10.5609 1.89332 10.1051 1.99062 9.66681C1.61059 9.42631 1.29757 9.09359 1.08066 8.69962C0.863745 8.30565 0.75 7.86321 0.75 7.41348C0.75 6.96374 0.863745 6.52131 1.08066 6.12733C1.29757 5.73336 1.61059 5.40065 1.99062 5.16014Z" fill="none" stroke="white" stroke-width="1.5" stroke-linecap="round" stroke-linejoin="round"/>
</svg>
