<svg width="67" height="57" viewBox="0 0 67 57" fill="none" xmlns="http://www.w3.org/2000/svg">
<path d="M26.1963 26.9961C32.6977 23.8804 38.8114 24.8407 44.3506 29.3057C48.9024 32.9742 51.3613 37.9621 52.6816 43.586C53.2968 46.2074 53.3732 48.7846 52.252 51.3038C50.6774 54.8404 47.1865 57.1407 43.6064 56.9932C42.2465 56.9376 40.9999 56.419 39.7129 56.0538C35.2737 54.7934 30.7946 54.7132 26.4756 56.3448C19.5853 58.9469 13.6991 53.1121 13.8779 46.1495L13.877 46.1495C14.0361 43.6494 14.969 40.4782 16.4072 37.4581C18.5616 32.9322 21.6179 29.1901 26.1963 26.9961ZM1.36816 21.1553C3.29856 18.0507 6.82556 17.0143 10.0645 18.6807C13.105 20.2457 14.6878 22.9233 15.4268 26.1739C15.8091 27.8557 15.8116 29.551 15.3652 31.2217C14.6557 33.8759 13.1978 35.9377 10.4658 36.712C7.70656 37.4937 5.36626 36.5025 3.37988 34.5752C1.2447 32.5035 0.0169672 29.4187 0 25.8672L0.000976563 25.8682C0.0304481 24.4515 0.394866 22.721 1.36816 21.1553ZM55.1152 19.8848C59.5743 16.0851 65.3794 18.0248 66.6953 23.7569C66.8832 24.5742 67.0007 25.4036 67 26.252L66.999 26.252C66.8531 29.8278 65.6773 32.9408 62.8467 35.251C58.8887 38.4824 53.6554 36.9959 51.915 32.1797C50.4142 28.0267 51.7976 22.7124 55.1152 19.8848ZM21.9434 0.084037C24.1234 -0.258269 26.0127 0.465268 27.6357 1.88775C29.8675 3.84464 30.9197 6.43477 31.4111 9.30083C31.5533 10.1299 31.5793 10.9668 31.5918 11.8047L31.584 12.3243C31.5073 14.9106 30.8791 17.3495 29.4658 19.5557C28.1654 21.586 26.4266 23.0541 23.9834 23.4727C21.5294 23.8926 19.4743 23.024 17.7363 21.3399C15.7597 19.4238 14.7737 16.9853 14.3604 14.3135C13.8461 10.9882 14.2375 7.76931 15.8516 4.7774C17.18 2.31522 19.0781 0.534602 21.9434 0.084037ZM38.4902 2.7481C41.7734 -1.00239 46.753 -0.895347 49.9219 2.95611C51.7261 5.14932 52.5597 7.73389 52.7793 10.5206C53.0076 13.4265 52.5474 16.2299 51.1357 18.8106C49.7691 21.3097 47.8419 23.1237 44.9023 23.5127C42.5794 23.8202 40.631 22.9524 38.9902 21.3594C36.998 19.4255 36.0322 16.9694 35.5762 14.2745C35.4362 13.4454 35.409 12.6088 35.3906 11.4708C35.4408 8.42098 36.2416 5.31699 38.4902 2.7481Z" fill="currentColor"/>
</svg>
