<svg width="26" height="26" viewBox="0 0 26 26" fill="none" xmlns="http://www.w3.org/2000/svg">
<mask id="path-1-inside-1_868_175" fill="white">
<path fill-rule="evenodd" clip-rule="evenodd" d="M12.5417 0.000332891C10.409 0.000332891 8.64617 0.188166 7.28933 0.416833L7.133 0.443666C5.95467 0.640833 4.97467 0.805333 4.20817 1.748C3.71817 2.3535 3.55833 3.008 3.52217 3.73717L2.94817 3.9285C2.408 4.10817 1.93317 4.26683 1.55867 4.44183C1.15267 4.63083 0.7805 4.8735 0.495833 5.269C0.211167 5.6645 0.098 6.09383 0.0466666 6.53833C-4.34617e-08 6.95017 0 7.44833 0 8.01883V8.188C0 8.657 -3.25963e-08 9.07117 0.035 9.41767C0.0723333 9.79217 0.155167 10.1573 0.361667 10.5097C0.5705 10.8632 0.848167 11.1128 1.1585 11.3275C1.44433 11.5258 1.806 11.7277 2.21667 11.9552L5.29667 13.6667C5.92667 14.9045 6.79117 16.0082 7.98 16.805C9.01483 17.5003 10.2573 17.9367 11.7285 18.0522C11.6889 18.1554 11.668 18.2648 11.6667 18.3753V20.417H9.99833C9.52632 20.417 9.06889 20.5806 8.70389 20.8799C8.33888 21.1791 8.08885 21.5956 7.99633 22.0585L7.74083 23.3337H5.54167C5.3096 23.3337 5.08704 23.4259 4.92295 23.5899C4.75885 23.754 4.66667 23.9766 4.66667 24.2087C4.66667 24.4407 4.75885 24.6633 4.92295 24.8274C5.08704 24.9915 5.3096 25.0837 5.54167 25.0837H19.5417C19.7737 25.0837 19.9963 24.9915 20.1604 24.8274C20.3245 24.6633 20.4167 24.4407 20.4167 24.2087C20.4167 23.9766 20.3245 23.754 20.1604 23.5899C19.9963 23.4259 19.7737 23.3337 19.5417 23.3337H17.3425L17.087 22.0585C16.9945 21.5956 16.7445 21.1791 16.3794 20.8799C16.0144 20.5806 15.557 20.417 15.085 20.417H13.4167V18.3753C13.4154 18.2648 13.3944 18.1554 13.3548 18.0522C14.826 17.9355 16.0685 17.5003 17.1033 16.8062C18.2933 16.0082 19.1567 14.9045 19.7867 13.6667L22.8667 11.9552C23.2773 11.7277 23.639 11.5258 23.9248 11.3275C24.234 11.1128 24.5128 10.8632 24.7205 10.5108C24.9282 10.1573 25.0122 9.79217 25.0483 9.41767C25.0833 9.07117 25.0833 8.657 25.0833 8.188V8.01883C25.0833 7.4495 25.0833 6.95017 25.0367 6.53833C24.9853 6.09383 24.8733 5.66333 24.5875 5.269C24.3028 4.8735 23.9307 4.63083 23.5258 4.44067C23.149 4.26567 22.6753 4.10817 22.1352 3.9285L21.5612 3.73717C21.5262 3.00683 21.3663 2.3535 20.8752 1.748C20.1098 0.804166 19.1298 0.639666 17.9515 0.443666L17.794 0.416833C16.0579 0.131565 14.301 -0.00775551 12.5417 0.000332891ZM15.5575 23.3337L15.3708 22.4015C15.3576 22.3354 15.3219 22.2759 15.2698 22.2332C15.2177 22.1904 15.1524 22.167 15.085 22.167H9.99833C9.93093 22.167 9.86562 22.1904 9.81352 22.2332C9.76141 22.2759 9.72571 22.3354 9.7125 22.4015L9.52583 23.3337H15.5575ZM3.54433 5.57467L3.56067 5.56883C3.64467 7.34217 3.84417 9.30217 4.3435 11.1338L3.09983 10.4443C2.646 10.1912 2.36133 10.0325 2.156 9.89017C1.967 9.75833 1.90517 9.68017 1.87133 9.62183C1.83633 9.5635 1.799 9.4725 1.77567 9.24383C1.75155 8.87959 1.74299 8.51448 1.75 8.1495V8.06433C1.75 7.4355 1.75117 7.03767 1.785 6.73667C1.81767 6.459 1.869 6.35517 1.91567 6.29217C1.96117 6.228 2.04283 6.14633 2.296 6.0285C2.57133 5.90017 2.94933 5.77417 3.54433 5.57467ZM21.5227 5.56767C21.4398 7.341 21.2392 9.301 20.741 11.1327L21.9835 10.4432C22.4373 10.19 22.722 10.0313 22.9273 9.889C23.1163 9.75717 23.1782 9.679 23.212 9.62067C23.247 9.56233 23.2843 9.47133 23.3077 9.24267C23.3322 8.993 23.3333 8.6675 23.3333 8.14833V8.06317C23.3333 7.43433 23.3322 7.0365 23.2983 6.7355C23.2657 6.45783 23.2143 6.354 23.1677 6.291C23.1222 6.22683 23.0405 6.14517 22.7873 6.02733C22.512 5.899 22.134 5.77183 21.539 5.57233L21.5227 5.56767ZM7.581 2.14233C9.22077 1.8739 10.8801 1.74278 12.5417 1.75033C14.5717 1.75033 16.2365 1.92883 17.5023 2.14233C18.9105 2.38033 19.2057 2.469 19.5172 2.85167C19.8228 3.22733 19.852 3.58433 19.789 5.16517C19.684 7.7995 19.3363 10.6438 18.2607 12.8068C17.7287 13.8732 17.0333 14.7458 16.1292 15.3525C15.2297 15.9557 14.0688 16.3337 12.5417 16.3337C11.0145 16.3337 9.85483 15.9557 8.95533 15.3525C8.05 14.7458 7.35467 13.8732 6.82383 12.8057C5.747 10.6438 5.4005 7.80067 5.2955 5.164C5.2325 3.58433 5.2605 3.22733 5.56733 2.85167C5.87767 2.469 6.17283 2.38033 7.581 2.14233Z"/>
</mask>
<path fill-rule="evenodd" clip-rule="evenodd" d="M12.5417 0.000332891C10.409 0.000332891 8.64617 0.188166 7.28933 0.416833L7.133 0.443666C5.95467 0.640833 4.97467 0.805333 4.20817 1.748C3.71817 2.3535 3.55833 3.008 3.52217 3.73717L2.94817 3.9285C2.408 4.10817 1.93317 4.26683 1.55867 4.44183C1.15267 4.63083 0.7805 4.8735 0.495833 5.269C0.211167 5.6645 0.098 6.09383 0.0466666 6.53833C-4.34617e-08 6.95017 0 7.44833 0 8.01883V8.188C0 8.657 -3.25963e-08 9.07117 0.035 9.41767C0.0723333 9.79217 0.155167 10.1573 0.361667 10.5097C0.5705 10.8632 0.848167 11.1128 1.1585 11.3275C1.44433 11.5258 1.806 11.7277 2.21667 11.9552L5.29667 13.6667C5.92667 14.9045 6.79117 16.0082 7.98 16.805C9.01483 17.5003 10.2573 17.9367 11.7285 18.0522C11.6889 18.1554 11.668 18.2648 11.6667 18.3753V20.417H9.99833C9.52632 20.417 9.06889 20.5806 8.70389 20.8799C8.33888 21.1791 8.08885 21.5956 7.99633 22.0585L7.74083 23.3337H5.54167C5.3096 23.3337 5.08704 23.4259 4.92295 23.5899C4.75885 23.754 4.66667 23.9766 4.66667 24.2087C4.66667 24.4407 4.75885 24.6633 4.92295 24.8274C5.08704 24.9915 5.3096 25.0837 5.54167 25.0837H19.5417C19.7737 25.0837 19.9963 24.9915 20.1604 24.8274C20.3245 24.6633 20.4167 24.4407 20.4167 24.2087C20.4167 23.9766 20.3245 23.754 20.1604 23.5899C19.9963 23.4259 19.7737 23.3337 19.5417 23.3337H17.3425L17.087 22.0585C16.9945 21.5956 16.7445 21.1791 16.3794 20.8799C16.0144 20.5806 15.557 20.417 15.085 20.417H13.4167V18.3753C13.4154 18.2648 13.3944 18.1554 13.3548 18.0522C14.826 17.9355 16.0685 17.5003 17.1033 16.8062C18.2933 16.0082 19.1567 14.9045 19.7867 13.6667L22.8667 11.9552C23.2773 11.7277 23.639 11.5258 23.9248 11.3275C24.234 11.1128 24.5128 10.8632 24.7205 10.5108C24.9282 10.1573 25.0122 9.79217 25.0483 9.41767C25.0833 9.07117 25.0833 8.657 25.0833 8.188V8.01883C25.0833 7.4495 25.0833 6.95017 25.0367 6.53833C24.9853 6.09383 24.8733 5.66333 24.5875 5.269C24.3028 4.8735 23.9307 4.63083 23.5258 4.44067C23.149 4.26567 22.6753 4.10817 22.1352 3.9285L21.5612 3.73717C21.5262 3.00683 21.3663 2.3535 20.8752 1.748C20.1098 0.804166 19.1298 0.639666 17.9515 0.443666L17.794 0.416833C16.0579 0.131565 14.301 -0.00775551 12.5417 0.000332891ZM15.5575 23.3337L15.3708 22.4015C15.3576 22.3354 15.3219 22.2759 15.2698 22.2332C15.2177 22.1904 15.1524 22.167 15.085 22.167H9.99833C9.93093 22.167 9.86562 22.1904 9.81352 22.2332C9.76141 22.2759 9.72571 22.3354 9.7125 22.4015L9.52583 23.3337H15.5575ZM3.54433 5.57467L3.56067 5.56883C3.64467 7.34217 3.84417 9.30217 4.3435 11.1338L3.09983 10.4443C2.646 10.1912 2.36133 10.0325 2.156 9.89017C1.967 9.75833 1.90517 9.68017 1.87133 9.62183C1.83633 9.5635 1.799 9.4725 1.77567 9.24383C1.75155 8.87959 1.74299 8.51448 1.75 8.1495V8.06433C1.75 7.4355 1.75117 7.03767 1.785 6.73667C1.81767 6.459 1.869 6.35517 1.91567 6.29217C1.96117 6.228 2.04283 6.14633 2.296 6.0285C2.57133 5.90017 2.94933 5.77417 3.54433 5.57467ZM21.5227 5.56767C21.4398 7.341 21.2392 9.301 20.741 11.1327L21.9835 10.4432C22.4373 10.19 22.722 10.0313 22.9273 9.889C23.1163 9.75717 23.1782 9.679 23.212 9.62067C23.247 9.56233 23.2843 9.47133 23.3077 9.24267C23.3322 8.993 23.3333 8.6675 23.3333 8.14833V8.06317C23.3333 7.43433 23.3322 7.0365 23.2983 6.7355C23.2657 6.45783 23.2143 6.354 23.1677 6.291C23.1222 6.22683 23.0405 6.14517 22.7873 6.02733C22.512 5.899 22.134 5.77183 21.539 5.57233L21.5227 5.56767ZM7.581 2.14233C9.22077 1.8739 10.8801 1.74278 12.5417 1.75033C14.5717 1.75033 16.2365 1.92883 17.5023 2.14233C18.9105 2.38033 19.2057 2.469 19.5172 2.85167C19.8228 3.22733 19.852 3.58433 19.789 5.16517C19.684 7.7995 19.3363 10.6438 18.2607 12.8068C17.7287 13.8732 17.0333 14.7458 16.1292 15.3525C15.2297 15.9557 14.0688 16.3337 12.5417 16.3337C11.0145 16.3337 9.85483 15.9557 8.95533 15.3525C8.05 14.7458 7.35467 13.8732 6.82383 12.8057C5.747 10.6438 5.4005 7.80067 5.2955 5.164C5.2325 3.58433 5.2605 3.22733 5.56733 2.85167C5.87767 2.469 6.17283 2.38033 7.581 2.14233Z" fill="black" stroke="#313533" stroke-width="2" mask="url(#path-1-inside-1_868_175)"/>
</svg>
